HIERARCHY
ROOT Hips
{
  OFFSET 50.5741 97.1054 4.7503
  CHANNELS 6 Xposition Yposition Zposition Zrotation Xrotation Yrotation
  JOINT spine
  {
    OFFSET 0 7.96568 0.458067
    CHANNELS 3 Zrotation Xrotation Yrotation
    JOINT spine1
    {
      OFFSET 0 10.2431 0
      CHANNELS 3 Zrotation Xrotation Yrotation
      JOINT spine2
      {
        OFFSET 0 9.81475 0
        CHANNELS 3 Zrotation Xrotation Yrotation
        JOINT Neck
        {
          OFFSET 0 25.1986 1.20138
          CHANNELS 3 Zrotation Xrotation Yrotation
          JOINT Head
          {
            OFFSET 0 7.61315 0
            CHANNELS 3 Zrotation Xrotation Yrotation
            End Site
            {
              OFFSET 0 18.4281 -6.07733
            }
          }
        }
        JOINT RightShoulder
        {
          OFFSET -4.1327 10.5992 -0.575451
          CHANNELS 3 Zrotation Xrotation Yrotation
          JOINT RightArm
          {
            OFFSET 0 13.9018 0
            CHANNELS 3 Zrotation Xrotation Yrotation
            JOINT RightArmRoll
            {
              OFFSET 0 7.01789 0
              CHANNELS 3 Zrotation Xrotation Yrotation
              JOINT RightForeArm
              {
                OFFSET 0 20.4406 0
                CHANNELS 3 Zrotation Xrotation Yrotation
                JOINT RightForeArmRoll
                {
                  OFFSET 0 7.87515 0
                  CHANNELS 3 Zrotation Xrotation Yrotation
                  JOINT RightHand
                  {
                    OFFSET 0 15.8037 0
                    CHANNELS 3 Zrotation Xrotation Yrotation
                    End Site
                    {
                      OFFSET 0 0 0
                    }
                  }
                }
              }
            }
          }
        }
        JOINT LeftShoulder
        {
          OFFSET 4.1327 10.5992 -0.575451
          CHANNELS 3 Zrotation Xrotation Yrotation
          JOINT LeftArm
          {
            OFFSET 0 13.9018 0
            CHANNELS 3 Zrotation Xrotation Yrotation
            JOINT LeftArmRoll
            {
              OFFSET 0 7.01788 0
              CHANNELS 3 Zrotation Xrotation Yrotation
              JOINT LeftForeArm
              {
                OFFSET 0 20.4406 0
                CHANNELS 3 Zrotation Xrotation Yrotation
                JOINT LeftForeArmRoll
                {
                  OFFSET 0 7.87515 0
                  CHANNELS 3 Zrotation Xrotation Yrotation
                  JOINT LeftHand
                  {
                    OFFSET 0 15.8037 0
                    CHANNELS 3 Zrotation Xrotation Yrotation
                    End Site
                    {
                      OFFSET 0 0 0
                    }
                  }
                }
              }
            }
          }
        }
      }
    }
  }
  JOINT RightUpLeg
  {
    OFFSET -7.06048 -1.2947 -1.0861
    CHANNELS 3 Zrotation Xrotation Yrotation
    JOINT RightUpLegRoll
    {
      OFFSET 0 18.5308 0
      CHANNELS 3 Zrotation Xrotation Yrotation
      JOINT RightLeg
      {
        OFFSET 0 -22.9476 0
        CHANNELS 3 Zrotation Xrotation Yrotation
        JOINT RightLegRoll
        {
          OFFSET 0 23.0226 0
          CHANNELS 3 Zrotation Xrotation Yrotation
          JOINT RightFoot
          {
            OFFSET 0 19.1625 0
            CHANNELS 3 Zrotation Xrotation Yrotation
            JOINT RightToeBase
            {
              OFFSET 0 16.0188 0
              CHANNELS 3 Zrotation Xrotation Yrotation
              End Site
              {
                OFFSET 0.00678979 7.75782 -0.894206
              }
            }
          }
        }
      }
    }
  }
  JOINT LeftUpLeg
  {
    OFFSET 7.06048 -1.2947 -1.0861
    CHANNELS 3 Zrotation Xrotation Yrotation
    JOINT LeftUpLegRoll
    {
      OFFSET 0 18.5309 0
      CHANNELS 3 Zrotation Xrotation Yrotation
      JOINT LeftLeg
      {
        OFFSET 0 22.9475 0
        CHANNELS 3 Zrotation Xrotation Yrotation
        JOINT LeftLegRoll
        {
          OFFSET 0 23.2355 0
          CHANNELS 3 Zrotation Xrotation Yrotation
          JOINT LeftFoot
          {
            OFFSET 0 18.9496 0
            CHANNELS 3 Zrotation Xrotation Yrotation
            JOINT LeftToeBase
            {
              OFFSET 0 16.0188 0
              CHANNELS 3 Zrotation Xrotation Yrotation
              End Site
              {
                OFFSET -0.0304289 7.75781 -0.894207
              }
            }
          }
        }
      }
    }
  }
}
MOTION
Frames: 10
Frame Time: 0.00208333
52.2515 97.0207 5.44999 0.557378 -7.1692 2.02838 -0.00132032 -0.0652579 -0.246705 -0.0230937 3.87237 -0.504778 -0.0170528 5.51742 -0.504938 -5.50274 5.33138 3.86767 -0.805406 6.92076 2.76784 68.4034 -2.5254 -2.4307 104.997 25.5933 -35.658 1.67035e-006 -2.71753e-006 -1.39502e-005 31.8712 80.7111 -33.5197 -2.42281e-006 8.70772e-006 -2.99998 8.02981 -4.95102 0.69757 -63.934 -2.5763 2.0669 -106.315 23.7358 26.2114 4.28466e-006 -7.4693e-007 2.81354e-006 -28.747 76.9473 29.0733 1.37234e-005 -2.36437e-006 3.00001 -8.02957 -4.95094 -0.697522 174.458 -6.38112 5.15016 180 7.01498e-015 178.728 177.976 6.04539 179.707 -2.20261e-006 -4.48611e-006 0.105117 -19.2439 68.4888 19.9575 8.12955 25.2331 -3.48478 -174.019 -6.01785 -1.97543 4.54188e-006 -4.6773e-006 -1.27678 -1.43922 -4.70578 0.0439122 1.01318e-006 -3.52976e-006 -0.0487744 18.5839 67.6744 -19.2746 -8.13319 25.2328 3.48633 
52.2386 97.0018 5.46181 0.56712 -7.15755 2.03203 -0.0014383 -0.0648451 -0.246282 -0.0232201 3.87319 -0.50299 -0.0172009 5.51824 -0.503146 -5.43432 5.38796 3.88286 -0.97937 6.80049 2.78434 68.4458 -2.54453 -2.44393 104.799 25.3747 -35.6216 1.67035e-006 -2.71753e-006 -1.39502e-005 31.8596 80.8113 -33.5667 -2.42281e-006 8.70772e-006 -2.99998 8.02981 -4.95102 0.69757 -63.954 -2.5446 2.05112 -106.227 23.5555 26.0294 4.28466e-006 -7.4693e-007 2.81354e-006 -28.5892 76.8344 28.8779 1.37234e-005 -2.36437e-006 3.00001 -8.02957 -4.95094 -0.697522 174.453 -6.35969 5.14228 180 7.01498e-015 178.728 177.993 6.07443 179.706 -2.20261e-006 -4.48611e-006 0.105154 -19.2542 68.5005 19.9682 8.12955 25.2331 -3.48478 -174.03 -6.00767 -1.96972 4.54188e-006 -4.6773e-006 -1.27678 -1.44167 -4.71029 0.043942 1.01318e-006 -3.52976e-006 -0.0488915 18.587 67.6782 -19.278 -8.13319 25.2328 3.48633 
52.2489 97.0034 5.47011 0.57717 -7.14561 2.03586 -0.00158264 -0.064506 -0.245845 -0.0234403 3.87387 -0.501135 -0.0174438 5.51892 -0.501286 -5.3659 5.44551 3.89772 -1.15306 6.67846 2.80057 68.4885 -2.56379 -2.45726 104.601 25.1571 -35.5851 1.67035e-006 -2.71753e-006 -1.39502e-005 31.8505 80.9112 -33.6159 -2.42281e-006 8.70772e-006 -2.99998 8.02981 -4.95102 0.69757 -63.9746 -2.51272 2.0353 -106.142 23.3752 25.8478 4.28466e-006 -7.4693e-007 2.81354e-006 -28.4366 76.7221 28.6878 1.37234e-005 -2.36437e-006 3.00001 -8.02957 -4.95094 -0.697522 174.447 -6.33744 5.13408 180 7.01498e-015 178.728 178.011 6.10455 179.704 -2.20261e-006 -4.48611e-006 0.105188 -19.2649 68.5125 19.9793 8.12955 25.2331 -3.48478 -174.042 -5.99719 -1.96388 4.54188e-006 -4.6773e-006 -1.27678 -1.44426 -4.71475 0.0439808 1.01318e-006 -3.52976e-006 -0.0490146 18.5902 67.6821 -19.2814 -8.13319 25.2328 3.48633 
52.2509 96.9992 5.45865 0.587436 -7.13346 2.0398 -0.00174545 -0.0642183 -0.245399 -0.0237261 3.87445 -0.499234 -0.0177529 5.5195 -0.499378 -5.29749 5.50373 3.91234 -1.32654 6.5552 2.8166 68.5314 -2.58316 -2.47068 104.404 24.9401 -35.5488 1.67035e-006 -2.71753e-006 -1.39502e-005 31.8434 81.0108 -33.6671 -2.42281e-006 8.70772e-006 -2.99998 8.02981 -4.95102 0.69757 -63.9956 -2.48072 2.01945 -106.057 23.1948 25.6669 4.28466e-006 -7.4693e-007 2.81354e-006 -28.2883 76.6102 28.5022 1.37234e-005 -2.36437e-006 3.00001 -8.02957 -4.95094 -0.697522 174.442 -6.31462 5.12565 180 7.01498e-015 178.728 178.029 6.13545 179.703 -2.20261e-006 -4.48611e-006 0.105221 -19.2759 68.5249 19.9907 8.12955 25.2331 -3.48478 -174.054 -5.98649 -1.95796 4.54188e-006 -4.6773e-006 -1.27678 -1.44693 -4.71917 0.0440259 1.01318e-006 -3.52976e-006 -0.0491419 18.5934 67.6859 -19.2849 -8.13319 25.2328 3.48633 
52.2462 96.994 5.46655 0.597824 -7.12119 2.0438 -0.00191881 -0.0639601 -0.244948 -0.0240494 3.87496 -0.497306 -0.0180998 5.52002 -0.497443 -5.22911 5.56234 3.92683 -1.49986 6.43124 2.83253 68.5744 -2.60258 -2.48414 104.207 24.7234 -35.5128 1.67035e-006 -2.71753e-006 -1.39502e-005 31.8381 81.1104 -33.72 -2.42281e-006 8.70772e-006 -2.99998 8.02981 -4.95102 0.69757 -64.0169 -2.44865 2.00359 -105.975 23.014 25.4865 4.28466e-006 -7.4693e-007 2.81354e-006 -28.1438 76.4985 28.3205 1.37234e-005 -2.36437e-006 3.00001 -8.02957 -4.95094 -0.697522 174.437 -6.29146 5.11709 180 7.01498e-015 178.728 178.048 6.16679 179.701 -2.20261e-006 -4.48611e-006 0.105252 -19.2871 68.5375 20.0023 8.12955 25.2331 -3.48478 -174.066 -5.97568 -1.95198 4.54188e-006 -4.6773e-006 -1.27678 -1.44965 -4.72358 0.0440746 1.01318e-006 -3.52976e-006 -0.0492716 18.5966 67.6898 -19.2883 -8.13319 25.2328 3.48633 
52.2523 96.9989 5.48008 0.608242 -7.1089 2.04783 -0.00209481 -0.0637092 -0.244496 -0.0243821 3.87546 -0.495372 -0.0184563 5.52052 -0.495501 -5.16075 5.62105 3.94129 -1.6731 6.30711 2.84843 68.6174 -2.62202 -2.49761 104.011 24.5068 -35.4774 1.67035e-006 -2.71753e-006 -1.39502e-005 31.8341 81.2099 -33.7743 -2.42281e-006 8.70772e-006 -2.99998 8.02981 -4.95102 0.69757 -64.0382 -2.41657 1.98773 -105.893 22.8327 25.3069 4.28466e-006 -7.4693e-007 2.81354e-006 -28.0024 76.3867 28.142 1.37234e-005 -2.36437e-006 3.00001 -8.02957 -4.95094 -0.697522 174.431 -6.26822 5.1085 180 7.01498e-015 178.728 178.067 6.19823 179.7 -2.20261e-006 -4.48611e-006 0.105283 -19.2984 68.5501 20.014 8.12955 25.2331 -3.48478 -174.078 -5.96483 -1.94599 4.54188e-006 -4.6773e-006 -1.27678 -1.45239 -4.72798 0.0441243 1.01318e-006 -3.52976e-006 -0.0494018 18.5998 67.6937 -19.2918 -8.13319 25.2328 3.48633 
52.2329 96.9918 5.48277 0.618595 -7.09666 2.05182 -0.00226554 -0.0634437 -0.244046 -0.0246961 3.876 -0.493451 -0.0187939 5.52105 -0.493573 -5.09243 5.67955 3.95583 -1.84631 6.18333 2.86439 68.6604 -2.64142 -2.51105 103.815 24.2901 -35.4429 1.67035e-006 -2.71753e-006 -1.39502e-005 31.8311 81.3095 -33.8296 -2.42281e-006 8.70772e-006 -2.99998 8.02981 -4.95102 0.69757 -64.0594 -2.38451 1.97187 -105.813 22.6505 25.128 4.28466e-006 -7.4693e-007 2.81354e-006 -27.8637 76.2746 27.9661 1.37234e-005 -2.36437e-006 3.00001 -8.02957 -4.95094 -0.697522 174.426 -6.24515 5.09998 180 7.01498e-015 178.728 178.085 6.22947 179.698 -2.20261e-006 -4.48611e-006 0.105315 -19.3095 68.5627 20.0256 8.12955 25.2331 -3.48478 -174.09 -5.95405 -1.94003 4.54188e-006 -4.6773e-006 -1.27678 -1.4551 -4.7324 0.0441721 1.01318e-006 -3.52976e-006 -0.0495309 18.6029 67.6976 -19.2952 -8.13319 25.2328 3.48633 
52.2414 96.9959 5.48965 0.628792 -7.08457 2.05572 -0.00242309 -0.0631413 -0.243603 -0.0249633 3.8766 -0.491563 -0.0190843 5.52166 -0.491679 -5.02415 5.73757 3.97054 -2.01955 6.06044 2.8805 68.7032 -2.66076 -2.52445 103.619 24.0728 -35.4095 1.67035e-006 -2.71753e-006 -1.39502e-005 31.8288 81.4092 -33.8858 -2.42281e-006 8.70772e-006 -2.99998 8.02981 -4.95102 0.69757 -64.0802 -2.35254 1.95604 -105.734 22.4674 24.9501 4.28466e-006 -7.4693e-007 2.81354e-006 -27.7271 76.162 27.7923 1.37234e-005 -2.36437e-006 3.00001 -8.02957 -4.95094 -0.697522 174.421 -6.22248 5.09162 180 7.01498e-015 178.728 178.103 6.26015 179.697 -2.20261e-006 -4.48611e-006 0.105348 -19.3205 68.575 20.037 8.12955 25.2331 -3.48478 -174.102 -5.94341 -1.93413 4.54188e-006 -4.6773e-006 -1.27678 -1.45775 -4.73683 0.0442155 1.01318e-006 -3.52976e-006 -0.049657 18.6061 67.7015 -19.2987 -8.13319 25.2328 3.48633 
52.2516 96.9922 5.49507 0.63874 -7.07272 2.05949 -0.00255956 -0.06278 -0.243171 -0.0251556 3.87732 -0.489728 -0.019299 5.52238 -0.489839 -4.95592 5.79482 3.98554 -2.19288 5.93896 2.89684 68.7457 -2.67998 -2.53776 103.423 23.8548 -35.3775 1.67035e-006 -2.71753e-006 -1.39502e-005 31.8266 81.5091 -33.9425 -2.42281e-006 8.70772e-006 -2.99998 8.02981 -4.95102 0.69757 -64.1005 -2.32071 1.94024 -105.656 22.2829 24.7732 4.28466e-006 -7.4693e-007 2.81354e-006 -27.592 76.0487 27.6199 1.37234e-005 -2.36437e-006 3.00001 -8.02957 -4.95094 -0.697522 174.416 -6.20048 5.08352 180 7.01498e-015 178.728 178.121 6.28994 179.695 -2.20261e-006 -4.48611e-006 0.105384 -19.3312 68.5869 20.048 8.12955 25.2331 -3.48478 -174.114 -5.93302 -1.92833 4.54188e-006 -4.6773e-006 -1.27678 -1.46029 -4.74131 0.0442516 1.01318e-006 -3.52976e-006 -0.0497783 18.6093 67.7054 -19.3021 -8.13319 25.2328 3.48633 
52.2536 96.9976 5.49695 0.648345 -7.06118 2.06308 -0.00266703 -0.0623378 -0.242753 -0.0252449 3.87821 -0.487966 -0.0194097 5.52327 -0.488074 -4.88774 5.85099 4.00093 -2.36637 5.81942 2.91349 68.7879 -2.69904 -2.55095 103.227 23.6359 -35.3472 1.67035e-006 -2.71753e-006 -1.39502e-005 31.8242 81.6094 -33.9994 -2.42281e-006 8.70772e-006 -2.99998 8.02981 -4.95102 0.69757 -64.1201 -2.28908 1.92448 -105.578 22.0969 24.5973 4.28466e-006 -7.4693e-007 2.81354e-006 -27.4582 75.9343 27.4485 1.37234e-005 -2.36437e-006 3.00001 -8.02957 -4.95094 -0.697522 174.411 -6.17937 5.07579 180 7.01498e-015 178.728 178.138 6.31853 179.694 -2.20261e-006 -4.48611e-006 0.105421 -19.3414 68.5983 20.0586 8.12955 25.2331 -3.48478 -174.125 -5.92296 -1.92268 4.54188e-006 -4.6773e-006 -1.27678 -1.46269 -4.74583 0.0442777 1.01318e-006 -3.52976e-006 -0.0498931 18.6124 67.7092 -19.3055 -8.13319 25.2328 3.48633 
